<svg stroke="#8C8498"  width="24" height="25" viewBox="0 0 24 25" fill="none" xmlns="http://www.w3.org/2000/svg">
    <path d="M6.73 17.5179C5.5056 16.4459 4.63727 15.0259 4.24091 13.4475C3.84454 11.8691 3.93899 10.2073 4.51164 8.68399C5.08429 7.16066 6.10791 5.8482 7.4459 4.92178C8.78388 3.99535 10.3726 3.49902 12 3.49902C13.6274 3.49902 15.2161 3.99535 16.5541 4.92178C17.8921 5.8482 18.9157 7.16066 19.4884 8.68399C20.061 10.2073 20.1555 11.8691 19.7591 13.4475C19.3627 15.0259 18.4944 16.4459 17.27 17.5179M6.73 17.5179H17.27M6.73 17.5179L5 20.5H19L17.27 17.5179" stroke-width="1.5" stroke-linecap="round" stroke-linejoin="round"/>
    <path d="M14 6.5L14.7071 7.79289L16 8.5L14.7071 9.20711L14 10.5L13.2929 9.20711L12 8.5L13.2929 7.79289L14 6.5Z"/>
    <path d="M17 10.5L17.3536 11.1464L18 11.5L17.3536 11.8536L17 12.5L16.6464 11.8536L16 11.5L16.6464 11.1464L17 10.5Z"  />
</svg>
